<svg width="25" height="25" viewBox="0 0 25 25" fill="none" xmlns="http://www.w3.org/2000/svg">
<path d="M7.29163 17.7219L11.8885 17.7063L21.9218 7.76875C22.3156 7.375 22.5323 6.85209 22.5323 6.29584C22.5323 5.73959 22.3156 5.21667 21.9218 4.82292L20.2697 3.17084C19.4823 2.38334 18.1083 2.3875 17.327 3.16771L7.29163 13.1073V17.7219ZM18.7968 4.64375L20.452 6.29271L18.7885 7.94063L17.1364 6.28959L18.7968 4.64375ZM9.37496 13.976L15.6562 7.75417L17.3083 9.40625L11.0281 15.626L9.37496 15.6313V13.976Z" fill="#7F7F7F"/>
<path d="M5.20833 21.875H19.7917C20.9406 21.875 21.875 20.9406 21.875 19.7917V10.7625L19.7917 12.8458V19.7917H8.49792C8.47083 19.7917 8.44271 19.8021 8.41563 19.8021C8.38125 19.8021 8.34687 19.7927 8.31146 19.7917H5.20833V5.20833H12.3406L14.424 3.125H5.20833C4.05937 3.125 3.125 4.05937 3.125 5.20833V19.7917C3.125 20.9406 4.05937 21.875 5.20833 21.875Z" fill="#7F7F7F"/>
</svg>
